<svg width="18" height="18" viewBox="0 0 18 18" fill="none" xmlns="http://www.w3.org/2000/svg">
<path fill-rule="evenodd" clip-rule="evenodd" d="M17 7.68216C17 6.71639 16.2171 5.93347 15.2513 5.93347L15.2127 5.93347C14.8454 5.93347 14.6169 5.53453 14.8028 5.21769C15.2932 4.3818 15.0051 3.30628 14.1624 2.82755L11.8186 1.4959C10.9771 1.01784 9.92032 1.32124 9.44152 2.13732C9.24701 2.46885 8.7501 2.46639 8.55819 2.1393C8.07881 1.32224 7.02194 1.02096 6.18149 1.49845L3.83704 2.83043C2.99472 3.30898 2.70668 4.3841 3.19691 5.21967C3.38229 5.53563 3.15445 5.93347 2.78812 5.93347L2.74837 5.93347C1.78277 5.93347 1 6.71624 1 7.68184L1 10.318C1 11.2837 1.7828 12.0665 2.74843 12.0665L2.78834 12.0665C3.1547 12.0665 3.38256 12.4643 3.19717 12.7803C2.70693 13.6159 2.99497 14.691 3.8373 15.1696L6.18173 16.5016C7.02203 16.979 8.07891 16.678 8.55838 15.8608C8.75029 15.5337 9.24682 15.5313 9.44133 15.8628C9.92023 16.679 10.977 16.9821 11.8183 16.5041L14.1622 15.1725C15.0048 14.6937 15.293 13.6182 14.8025 12.7823C14.6166 12.4654 14.8451 12.0665 15.2125 12.0665L15.2513 12.0665C16.2171 12.0665 17 11.2835 17 10.3177L17 7.68216ZM12.955 4.4418C12.2524 5.98382 13.3007 7.78499 15 7.92479L15 10.0751C13.3006 10.2148 12.2521 12.0161 12.9547 13.5582L11.035 14.6489C10.0453 13.2732 7.957 13.2679 6.96505 14.6464L5.04524 13.5556C5.74692 12.0143 4.6987 10.2142 3 10.0751L3 7.92485C4.69854 7.78561 5.74662 5.98565 5.04499 4.44439L6.9648 3.35367C7.95677 4.73221 10.0455 4.72696 11.0353 3.35113L12.955 4.4418ZM9 7.5C9.82843 7.5 10.5 8.17157 10.5 9C10.5 9.82843 9.82843 10.5 9 10.5C8.17157 10.5 7.5 9.82843 7.5 9C7.5 8.17157 8.17157 7.5 9 7.5ZM12.5 9C12.5 7.067 10.933 5.5 9 5.5C7.067 5.5 5.5 7.067 5.5 9C5.5 10.933 7.067 12.5 9 12.5C10.933 12.5 12.5 10.933 12.5 9Z" fill="#262626"/>
</svg>
