<svg width="48" height="48" viewBox="0 0 48 48" fill="none" xmlns="http://www.w3.org/2000/svg">
<path fill-rule="evenodd" clip-rule="evenodd" d="M2 13C2 11.3431 3.34315 10 5 10H39C40.6569 10 42 11.3431 42 13V14.6667L44.8356 14.1941C45.4451 14.0925 46 14.5625 46 15.1805V31.8195C46 32.4375 45.4451 32.9075 44.8356 32.8059L42 32.3333V34C42 35.6569 40.6569 37 39 37H28V40.5V41H27.5H23.5364L25.804 43.2676C26.7803 44.2439 26.7803 45.8268 25.804 46.8031C24.8277 47.7794 23.2448 47.7794 22.2684 46.8031L15.9045 40.4392C14.9597 39.4944 14.9292 37.9815 15.813 37H5C3.34314 37 2 35.6569 2 34V13ZM27 40H22.5364L19.5364 37H27V40ZM42 30.3057V16.6943L44 16.3609V30.6391L42 30.3057ZM40 13V15.8471V31.1529V34C40 34.5523 39.5523 35 39 35H5C4.44771 35 4 34.5523 4 34V13C4 12.4477 4.44772 12 5 12H39C39.5523 12 40 12.4477 40 13ZM25.0969 43.9747L18.7329 37.6107C18.1471 37.0249 17.1974 37.0249 16.6116 37.6107C16.0258 38.1965 16.0258 39.1463 16.6116 39.732L22.9756 46.096C23.5613 46.6818 24.5111 46.6818 25.0969 46.096C25.6827 45.5102 25.6827 44.5605 25.0969 43.9747ZM18 18H20V20H18V18ZM26 18H24V20H26V18ZM18 24V22H25.3672H26V24H25.3672H18ZM20 26H18V28H20V26ZM24 26H26V28H24V26Z" fill="#262626"/>
</svg>
