<svg width="48" height="48" viewBox="0 0 48 48" fill="none" xmlns="http://www.w3.org/2000/svg">
<path fill-rule="evenodd" clip-rule="evenodd" d="M4 9.30925C4 7.99051 5.25395 7.03274 6.52623 7.37972L16.1339 10H16.1373H16.1831H16.2289H16.2747H16.3205H16.3664H16.4122H16.458H16.5038H16.5497H16.5955H16.6414H16.6872H16.7331H16.7789H16.8248H16.8707H16.9165H16.9624H17.0082H17.0541H17.1H17.1458H17.1917H17.2375H17.2834H17.3293H17.3751H17.421H17.4668H17.5127H17.5585H17.6043H17.6502H17.696H17.7418H17.7876H17.8334H17.8792H17.925H17.9708H18.0166H18.0624H18.1081H18.1539H18.1996H18.2454H18.2911H18.3368H18.3825H18.4282H18.4739H18.5196H18.5652H18.6109H18.6565H18.7021H18.7477H18.7933H18.8389H18.8844H18.93H18.9755H19.021H19.0665H19.112H19.1574H19.2029H19.2483H19.2937H19.3391H19.3845H19.4298H19.4751H19.5204H19.5657H19.611H19.6562H19.7015H19.7467H19.7918H19.837H19.8821H19.9272H19.9723H20.0174H20.0624H20.1074H20.1524H20.1973H20.2423H20.2872H20.332H20.3769H20.4217H20.4665H20.5113H20.556H20.6007H20.6454H20.69H20.7346H20.7792H20.8237H20.8683H20.9127H20.9572H21.0016H21.046H21.0904H21.1347H21.1789H21.2232H21.2674H21.3116H21.3557H21.3998H21.4439H21.4879H21.5319H21.5759H21.6198H21.6637H21.7075H21.7513H21.795H21.8388H21.8824H21.9261H21.9697H22.0132H22.0567H22.1002H22.1436H22.187H22.2303H22.2736H22.3169H22.3601H22.4032H22.4464H22.4894H22.5324H22.5754H22.6183H22.6612H22.704H22.7468H22.7896H22.8322H22.8749H22.9175H22.96H23.0025H23.0449H23.0873H23.1296H23.1719H23.2141H23.2563H23.2984H23.3405H23.3825H23.4244H23.4663H23.5082H23.55H23.5917H23.6334H23.675H23.7165H23.758H23.7995H23.8409H23.8822H23.9235H23.9647H24.0058H24.0469H24.088H24.1289H24.1698H24.2107H24.2515H24.2922H24.3328H24.3734H24.414H24.4544H24.4948H24.5352H24.5755H24.6157H24.6558H24.6959H24.7359H24.7758H24.8157H24.8555H24.8952H24.9349H24.9745H25.014H25.0535H25.0929H25.1322H25.1714H25.2106H25.2497H25.2888H25.3277H25.3666H25.4054H25.4442H25.4828H25.5214H25.5599H25.5984H25.6367H25.675H25.7132H25.7514H25.7894H25.8274H25.8653H25.9031H25.9409H25.9786H26.0162H26.0537H26.0911H26.1284H26.1657H26.2029H26.24H26.277H26.314H26.3508H26.3876H26.4243H26.4609H26.4974H26.5338H26.5702H26.6065H26.6426H26.6787H26.7147H26.7507H26.7865H26.8222H26.8579H26.8935H26.9289H26.9643H26.9996H27.0348H27.0699H27.105H27.1399H27.1748H27.2095H27.2442H27.2787H27.3132H27.3476H27.3819H27.4161H27.4502H27.4842H27.5181H27.5519H27.5856H27.6192H27.6527H27.6862H27.7195H27.7527H27.7858H27.8189H27.8518H27.8846H27.9174H27.95H27.9825H28.015H28.0473H28.0795H28.1116H28.1437H28.1756H28.2074H28.2391H28.2707H28.3022H28.3336H28.3649H28.3961H28.4271H28.4581H28.489H28.5197H28.5504H28.5809H28.6113H28.6417H28.6719H28.702H28.732H28.7619H28.7916H28.8213H28.8508H28.8803H28.9096H28.9388H28.9679H28.9969H29.0258H29.0545H29.0832H29.1117H29.1401H29.1684H29.1966H29.2247H29.2526H29.2804H29.3081H29.3357H29.3632H29.3906H29.4178H29.4449H29.4719H29.4988H29.5256H29.5522H29.5787H29.6051H29.6314H29.6575H29.6835H29.7094H29.7352H29.7609H29.7864H29.8118H29.8371H29.8622H29.8872H29.9121H29.9369H29.9616H29.9861H30.0105H30.0347H30.0589H30.0829H30.1067H30.1305H30.1541H30.1776H30.2009H30.2241H30.2472H30.2702H30.293H30.3157H30.3382H30.3607H30.3829H30.4051H30.4271H30.449H30.4707H30.4924H30.5138H30.5352H30.5564H30.5774H30.5984H30.6191H30.6398H30.6603H30.6807H30.7009H30.721H30.7409H30.7607H30.7804H30.7999H30.8193H30.8385H30.8576H30.8766H30.8954H30.914H30.9326H30.9509H30.9692H30.9873H31.0052H31.023H31.0406H31.0581H31.0755H31.0927H31.1097H31.1266H31.1434H31.16H31.1764H31.1927H31.2089H31.2249H31.2408H31.2565H31.272H31.2874H31.3026H31.3177H31.3327H31.3474H31.3621H31.3765H31.3909H31.405H31.419H31.4329H31.4466H31.4601H31.4735H31.4867H31.4997H31.5127H31.5254H31.538H31.5504H31.5627H31.5748H31.5867H31.5985H31.6101H31.6216H31.6329H31.644H31.6549H31.6658H31.6764H31.6869H31.6972H31.7073H31.7173H31.7271H31.7368H31.7462H31.7556H31.7647H31.7737H31.7825H31.7911H31.7996H31.8079H31.816H31.824H31.8318H31.8394H31.8469H31.8541H31.8612H31.8661L41.4738 7.37973C42.746 7.03274 44 7.99051 44 9.30925V32.6908C44 34.0095 42.746 34.9673 41.4738 34.6203L31.8661 32H16.1339L6.52623 34.6203C5.25396 34.9673 4 34.0095 4 32.6908V9.30925ZM32 11L31.9999 12H31.9996H31.9992H31.9985H31.9977H31.9966H31.9954H31.994H31.9925H31.9907H31.9887H31.9866H31.9843H31.9818H31.9791H31.9763H31.9732H31.97H31.9666H31.963H31.9593H31.9553H31.9512H31.9469H31.9424H31.9378H31.9329H31.9279H31.9227H31.9174H31.9118H31.9061H31.9002H31.8942H31.8879H31.8815H31.8749H31.8682H31.8612H31.8541H31.8469H31.8394H31.8318H31.824H31.816H31.8079H31.7996H31.7911H31.7825H31.7737H31.7647H31.7556H31.7462H31.7368H31.7271H31.7173H31.7073H31.6972H31.6869H31.6764H31.6658H31.6549H31.644H31.6329H31.6216H31.6101H31.5985H31.5867H31.5748H31.5627H31.5504H31.538H31.5254H31.5127H31.4997H31.4867H31.4735H31.4601H31.4466H31.4329H31.419H31.405H31.3909H31.3765H31.3621H31.3474H31.3327H31.3177H31.3026H31.2874H31.272H31.2565H31.2408H31.2249H31.2089H31.1927H31.1764H31.16H31.1434H31.1266H31.1097H31.0927H31.0755H31.0581H31.0406H31.023H31.0052H30.9873H30.9692H30.9509H30.9326H30.914H30.8954H30.8766H30.8576H30.8385H30.8193H30.7999H30.7804H30.7607H30.7409H30.721H30.7009H30.6807H30.6603H30.6398H30.6191H30.5984H30.5774H30.5564H30.5352H30.5138H30.4924H30.4707H30.449H30.4271H30.4051H30.3829H30.3607H30.3382H30.3157H30.293H30.2702H30.2472H30.2241H30.2009H30.1776H30.1541H30.1305H30.1067H30.0829H30.0589H30.0347H30.0105H29.9861H29.9616H29.9369H29.9121H29.8872H29.8622H29.8371H29.8118H29.7864H29.7609H29.7352H29.7094H29.6835H29.6575H29.6314H29.6051H29.5787H29.5522H29.5256H29.4988H29.4719H29.4449H29.4178H29.3906H29.3632H29.3357H29.3081H29.2804H29.2526H29.2247H29.1966H29.1684H29.1401H29.1117H29.0832H29.0545H29.0258H28.9969H28.9679H28.9388H28.9096H28.8803H28.8508H28.8213H28.7916H28.7619H28.732H28.702H28.6719H28.6417H28.6113H28.5809H28.5504H28.5197H28.489H28.4581H28.4271H28.3961H28.3649H28.3336H28.3022H28.2707H28.2391H28.2074H28.1756H28.1437H28.1116H28.0795H28.0473H28.015H27.9825H27.95H27.9174H27.8846H27.8518H27.8189H27.7858H27.7527H27.7195H27.6862H27.6527H27.6192H27.5856H27.5519H27.5181H27.4842H27.4502H27.4161H27.3819H27.3476H27.3132H27.2787H27.2442H27.2095H27.1748H27.1399H27.105H27.0699H27.0348H26.9996H26.9643H26.9289H26.8935H26.8579H26.8222H26.7865H26.7507H26.7147H26.6787H26.6426H26.6065H26.5702H26.5338H26.4974H26.4609H26.4243H26.3876H26.3508H26.314H26.277H26.24H26.2029H26.1657H26.1284H26.0911H26.0537H26.0162H25.9786H25.9409H25.9031H25.8653H25.8274H25.7894H25.7514H25.7132H25.675H25.6367H25.5984H25.5599H25.5214H25.4828H25.4442H25.4054H25.3666H25.3277H25.2888H25.2497H25.2106H25.1714H25.1322H25.0929H25.0535H25.014H24.9745H24.9349H24.8952H24.8555H24.8157H24.7758H24.7359H24.6959H24.6558H24.6157H24.5755H24.5352H24.4948H24.4544H24.414H24.3734H24.3328H24.2922H24.2515H24.2107H24.1698H24.1289H24.088H24.0469H24.0058H23.9647H23.9235H23.8822H23.8409H23.7995H23.758H23.7165H23.675H23.6334H23.5917H23.55H23.5082H23.4663H23.4244H23.3825H23.3405H23.2984H23.2563H23.2141H23.1719H23.1296H23.0873H23.0449H23.0025H22.96H22.9175H22.8749H22.8322H22.7896H22.7468H22.704H22.6612H22.6183H22.5754H22.5324H22.4894H22.4464H22.4032H22.3601H22.3169H22.2736H22.2303H22.187H22.1436H22.1002H22.0567H22.0132H21.9697H21.9261H21.8824H21.8388H21.795H21.7513H21.7075H21.6637H21.6198H21.5759H21.5319H21.4879H21.4439H21.3998H21.3557H21.3116H21.2674H21.2232H21.1789H21.1347H21.0904H21.046H21.0016H20.9572H20.9127H20.8683H20.8237H20.7792H20.7346H20.69H20.6454H20.6007H20.556H20.5113H20.4665H20.4217H20.3769H20.332H20.2872H20.2423H20.1973H20.1524H20.1074H20.0624H20.0174H19.9723H19.9272H19.8821H19.837H19.7918H19.7467H19.7015H19.6562H19.611H19.5657H19.5204H19.4751H19.4298H19.3845H19.3391H19.2937H19.2483H19.2029H19.1574H19.112H19.0665H19.021H18.9755H18.93H18.8844H18.8389H18.7933H18.7477H18.7021H18.6565H18.6109H18.5652H18.5196H18.4739H18.4282H18.3825H18.3368H18.2911H18.2454H18.1996H18.1539H18.1081H18.0624H18.0166H17.9708H17.925H17.8792H17.8334H17.7876H17.7418H17.696H17.6502H17.6043H17.5585H17.5127H17.4668H17.421H17.3751H17.3293H17.2834H17.2375H17.1917H17.1458H17.1H17.0541H17.0082H16.9624H16.9165H16.8707H16.8248H16.7789H16.7331H16.6872H16.6414H16.5955H16.5497H16.5038H16.458H16.4122H16.3664H16.3205H16.2747H16.2289H16.1831H16.1373H16.0915H16.0458H16V30H32V12V11ZM6 9.30925L15 11.7638L15 30.2362L6 32.6908V9.30925ZM42 32.6908L33 30.2362V11.7638L42 9.30925V32.6908ZM12.3536 36.8536L10.2071 39L37.7929 39L35.6464 36.8536L36.3536 36.1464L39.1768 38.9697C39.4697 39.2626 39.4697 39.7374 39.1768 40.0303L36.3536 42.8536L35.6464 42.1464L37.7929 40L10.2071 40L12.3536 42.1465L11.6464 42.8536L8.82322 40.0303C8.53033 39.7374 8.53033 39.2626 8.82322 38.9697L11.6464 36.1465L12.3536 36.8536Z" fill="#262626"/>
</svg>
