<svg width="24" height="24" viewBox="0 0 24 24" fill="none" xmlns="http://www.w3.org/2000/svg">
<path d="M14.5 20H4C3.44772 20 3 19.5523 3 19V5C3 4.44772 3.44772 4 4 4H20C20.5523 4 21 4.44772 21 5V13.5" stroke="#262626" stroke-width="2"/>
<path d="M21 8H3" stroke="#262626" stroke-width="2"/>
<path d="M18 1V4" stroke="#262626" stroke-width="2"/>
<path d="M6 1V4" stroke="#262626" stroke-width="2"/>
<path d="M13 16.5C13 14.0147 15.0147 12 17.5 12C19.9853 12 22 14.0147 22 16.5C22 18.9853 19.9853 21 17.5 21C15.0147 21 13 18.9853 13 16.5Z" stroke="#262626" stroke-width="2"/>
<path d="M18 14L18 16.5C18 16.7761 17.7761 17 17.5 17L15 17" stroke="#262626" stroke-width="2"/>
<path d="M10 16H7" stroke="#262626" stroke-width="2"/>
<path d="M10 12H7" stroke="#262626" stroke-width="2"/>
</svg>
