<svg width="24" height="24" viewBox="0 0 24 24" fill="none" xmlns="http://www.w3.org/2000/svg">
<path d="M9.83179 8.5C9.83179 7.77273 10.2318 6.5 11.8318 6.5C13.8318 6.5 14.3318 8.5 13.3318 9.59091C12.3318 10.6818 11.4985 10.7667 11.4985 12.1364V12.5" stroke="#262626" stroke-width="2"/>
<path d="M11.5037 13.5L11.5037 15.5" stroke="#262626" stroke-width="2"/>
<path d="M3 4C3 3.44772 3.44772 3 4 3H20C20.5523 3 21 3.44772 21 4V17C21 17.5523 20.5523 18 20 18H11L6.83448 21.749C6.51272 22.0386 6 21.8102 6 21.3773V18H4C3.44772 18 3 17.5523 3 17V4Z" stroke="#262626" stroke-width="2"/>
</svg>
