<svg width="24" height="24" viewBox="0 0 24 24" fill="none" xmlns="http://www.w3.org/2000/svg">
<path fill-rule="evenodd" clip-rule="evenodd" d="M2 6L3.06055 6L3.94334 20.1248C4.00922 21.1788 4.88332 22 5.93945 22L16.0605 22C17.1167 22 17.9908 21.1788 18.0567 20.1248L18.9394 6L20 6L20 4L15 4L15 3C15 1.89543 14.1046 0.999999 13 1L9 1C7.89543 1 7 1.89543 7 3L7 4L2 4L2 6ZM5.93945 20L5.06445 6L16.9355 6L16.0605 20L5.93945 20ZM9 4L13 4L13 3L9 3L9 4ZM10 17L10 11L8 11L8 17L10 17ZM14 17L14 11L12 11L12 17L14 17Z" fill="#262626"/>
</svg>
