<svg width="24" height="24" viewBox="0 0 24 24" fill="none" xmlns="http://www.w3.org/2000/svg">
<path d="M11.7656 17.0976L11.0585 17.8047L11.7656 17.0976ZM12.237 17.0976L12.9441 17.8047L12.237 17.0976ZM3.96086 10.7071L11.0585 17.8047L12.4727 16.3905L5.37508 9.29289L3.96086 10.7071ZM12.9441 17.8047L20.0417 10.7071L18.6275 9.29289L11.5299 16.3905L12.9441 17.8047ZM13.0013 16.6667V2L11.0013 2V16.6667H13.0013ZM11.0585 17.8047C11.5792 18.3254 12.4234 18.3254 12.9441 17.8047L11.5299 16.3905C11.7902 16.1302 12.2124 16.1302 12.4727 16.3905L11.0585 17.8047Z" fill="#262626"/>
<path d="M3 21L21 21" stroke="#262626" stroke-width="2"/>
</svg>
