<svg width="24" height="24" viewBox="0 0 24 24" fill="none" xmlns="http://www.w3.org/2000/svg">
<path d="M11.6477 16.9798L12.3549 16.2727L11.6477 16.9798ZM12.3549 16.9798L11.6477 16.2727L12.3549 16.9798ZM3.96086 10.7071L10.9406 17.6869L12.3549 16.2727L5.37508 9.29289L3.96086 10.7071ZM13.062 17.6869L20.0417 10.7071L18.6275 9.29289L11.6477 16.2727L13.062 17.6869ZM13.0013 16.6667V2L11.0013 2V16.6667H13.0013ZM10.9406 17.6869C11.5264 18.2727 12.4762 18.2727 13.062 17.6869L11.6477 16.2727C11.843 16.0774 12.1596 16.0774 12.3549 16.2727L10.9406 17.6869Z" fill="#262626"/>
<path d="M3 21L21 21" stroke="#262626" stroke-width="2"/>
</svg>
