<svg width="24" height="24" viewBox="0 0 24 24" fill="none" xmlns="http://www.w3.org/2000/svg">
<path fill-rule="evenodd" clip-rule="evenodd" d="M2 5C2 3.89543 2.89543 3 4 3H20C21.1046 3 22 3.89543 22 5V19C22 20.1046 21.1046 21 20 21H4C2.89543 21 2 20.1046 2 19V5ZM20 5H4V15.4822L7.48915 11.993C8.26472 11.2174 9.52022 11.2112 10.3035 11.979L13.2687 14.8859L13.2687 14.8859L13.2758 14.8929L17.383 19H20V5ZM14.5545 19L11.8651 16.3106L8.90337 13.4072L4 18.3106V19H14.5545ZM19 9.5C19 11.433 17.433 13 15.5 13C13.567 13 12 11.433 12 9.5C12 7.567 13.567 6 15.5 6C17.433 6 19 7.567 19 9.5ZM15.5 11C16.3284 11 17 10.3284 17 9.5C17 8.67157 16.3284 8 15.5 8C14.6716 8 14 8.67157 14 9.5C14 10.3284 14.6716 11 15.5 11Z" fill="#262626"/>
</svg>
