<svg width="24" height="24" viewBox="0 0 24 24" fill="none" xmlns="http://www.w3.org/2000/svg">
<path d="M4 2C2.89543 2 2 2.89543 2 4V18C2 19.1046 2.89543 20 4 20H12.3414C12.1203 19.3744 12 18.7013 12 18H4V17.3106L8.90337 12.4072L11.8651 15.3106L12.3989 15.8444C12.6498 15.1928 13.0111 14.5961 13.46 14.0771L13.2687 13.8859L10.3035 10.979C9.52022 10.2112 8.26472 10.2174 7.48915 10.993L4 14.4822V4H20V12.3414C20.7452 12.6048 21.4229 13.0113 22 13.5278V4C22 2.89543 21.1046 2 20 2H4Z" fill="#262626"/>
<path fill-rule="evenodd" clip-rule="evenodd" d="M15.5 12C17.433 12 19 10.433 19 8.5C19 6.567 17.433 5 15.5 5C13.567 5 12 6.567 12 8.5C12 10.433 13.567 12 15.5 12ZM17 8.5C17 9.32843 16.3284 10 15.5 10C14.6716 10 14 9.32843 14 8.5C14 7.67157 14.6716 7 15.5 7C16.3284 7 17 7.67157 17 8.5Z" fill="#262626"/>
<path fill-rule="evenodd" clip-rule="evenodd" d="M18 13C17.5692 13 17.2659 13.2437 17.1132 13.5814C16.9773 13.8819 16.7704 14.1782 16.4658 14.3048C16.1612 14.4314 15.8114 14.3651 15.5028 14.2487C15.1561 14.118 14.7693 14.1601 14.4647 14.4647C14.1601 14.7693 14.118 15.1561 14.2487 15.5028C14.3651 15.8114 14.4314 16.1612 14.3048 16.4658C14.1782 16.7704 13.8819 16.9773 13.5814 17.1132C13.2437 17.2659 13 17.5692 13 18C13 18.4308 13.2437 18.7341 13.5814 18.8868C13.8819 19.0227 14.1782 19.2296 14.3048 19.5342C14.4314 19.8388 14.3651 20.1886 14.2487 20.4972C14.118 20.8439 14.1601 21.2307 14.4647 21.5353C14.7693 21.8399 15.1561 21.882 15.5028 21.7513C15.8114 21.6349 16.1612 21.5686 16.4658 21.6952C16.7704 21.8218 16.9773 22.1181 17.1132 22.4186C17.2659 22.7563 17.5692 23 18 23C18.4309 23 18.7342 22.7562 18.8868 22.4185C19.0227 22.118 19.2296 21.8218 19.534 21.6953C19.8386 21.5687 20.1882 21.6349 20.4967 21.7515C20.8435 21.8825 21.2304 21.8405 21.5352 21.5357C21.8398 21.2311 21.882 20.8444 21.7512 20.4977C21.6348 20.189 21.5685 19.839 21.6952 19.5343C21.8218 19.2297 22.1181 19.0227 22.4187 18.8867C22.7563 18.734 23 18.4308 23 18C23 17.5692 22.7563 17.266 22.4187 17.1133C22.1181 16.9773 21.8218 16.7703 21.6952 16.4657C21.5685 16.161 21.6348 15.811 21.7512 15.5023C21.882 15.1556 21.8398 14.7689 21.5352 14.4643C21.2304 14.1595 20.8435 14.1175 20.4967 14.2485C20.1882 14.3651 19.8386 14.4313 19.534 14.3047C19.2296 14.1782 19.0227 13.882 18.8868 13.5815C18.7342 13.2438 18.4309 13 18 13ZM19.4066 16.5782C19.0453 16.2207 18.5484 16 18 16C17.4552 16 16.9613 16.2178 16.6006 16.5711L16.586 16.586L16.5711 16.6006C16.2178 16.9613 16 17.4552 16 18C16 18.5448 16.2178 19.0387 16.5711 19.3994L16.586 19.414L16.6006 19.4289C16.9613 19.7822 17.4552 20 18 20C18.5484 20 19.0453 19.7793 19.4066 19.4218L19.4139 19.4144L19.4215 19.4069C19.7791 19.0456 20 18.5486 20 18C20 17.4514 19.7791 16.9544 19.4215 16.5931C19.419 16.5906 19.4164 16.5881 19.4139 16.5856C19.4115 16.5831 19.409 16.5807 19.4066 16.5782Z" fill="#262626"/>
</svg>
