<svg width="24" height="24" viewBox="0 0 24 24" fill="none" xmlns="http://www.w3.org/2000/svg">
<path d="M4.15374 10.4394C4.27316 9.83902 4.46014 9.25879 4.70849 8.70865L3.21767 7.21783C2.7386 8.09759 2.3907 9.05113 2.19217 10.0492C1.93059 11.3643 1.93815 12.7071 2.20204 14C2.56179 15.7626 4.00012 17.0001 6.00012 17.0001H8.42595C9.33839 17.0001 9.77418 18.1219 9.10102 18.7379L8.51038 19.2783C7.7623 19.9629 7.90219 21.1782 8.86509 21.4961C10.4942 22.0338 12.2459 22.1471 13.9509 21.808C14.949 21.6094 15.9026 21.2616 16.7823 20.7825L15.2915 19.2917C14.7414 19.54 14.1611 19.727 13.5607 19.8464C12.6266 20.0322 11.675 20.0483 10.7493 19.9018C12.3254 18.0121 11.0155 15.0001 8.42595 15.0001H6.00012C4.93544 15.0001 4.32833 14.4168 4.16164 13.6001C3.95051 12.5657 3.94448 11.4914 4.15374 10.4394Z" fill="#262626"/>
<path fill-rule="evenodd" clip-rule="evenodd" d="M19.7428 18.3286L21.7071 20.2929L20.2929 21.7071L2.29293 3.70711L3.70714 2.29289L5.67158 4.25733C5.75077 4.19261 5.83105 4.12902 5.91241 4.06659C7.83715 2.58969 10.2332 1.86286 12.6541 2.02154C15.0749 2.18021 17.3556 3.21356 19.0711 4.92906C20.7866 6.64456 21.8199 8.92521 21.9786 11.3461C22.1373 13.767 21.4105 16.163 19.9336 18.0877C19.8711 18.1691 19.8075 18.2494 19.7428 18.3286ZM7.09472 5.68047L18.3197 16.9054C18.3288 16.8937 18.3378 16.882 18.3468 16.8702C19.5284 15.3304 20.1098 13.4136 19.9829 11.4769C19.856 9.54019 19.0293 7.71567 17.6569 6.34327C16.2845 4.97087 14.46 4.14419 12.5232 4.01726C10.5865 3.89032 8.66972 4.47178 7.12993 5.6533C7.11817 5.66233 7.10643 5.67139 7.09472 5.68047Z" fill="#262626"/>
<path d="M13.5 7C13.5 7.82843 12.8285 8.5 12 8.5C11.1716 8.5 10.5 7.82843 10.5 7C10.5 6.17157 11.1716 5.5 12 5.5C12.8285 5.5 13.5 6.17157 13.5 7Z" fill="#262626"/>
<path d="M17.5 9.5C17.5 10.3284 16.8285 11 16 11C15.1716 11 14.5 10.3284 14.5 9.5C14.5 8.67157 15.1716 8 16 8C16.8285 8 17.5 8.67157 17.5 9.5Z" fill="#262626"/>
<path d="M16.9604 15.4598C16.2686 15.9156 15.3383 15.7242 14.8825 15.0324C14.4268 14.3406 14.6181 13.4104 15.3099 12.9546C16.0017 12.4989 16.932 12.6902 17.3877 13.382C17.8435 14.0738 17.6521 15.0041 16.9604 15.4598Z" fill="#262626"/>
</svg>
